<?xml version="1.0" standalone="no"?>
<!DOCTYPE svg PUBLIC "-//W3C//DTD SVG 20010904//EN"
 "http://www.w3.org/TR/2001/REC-SVG-20010904/DTD/svg10.dtd">
<svg version="1.0" xmlns="http://www.w3.org/2000/svg"
 width="300.000000pt" height="300.000000pt" viewBox="0 0 300.000000 300.000000"
 preserveAspectRatio="xMidYMid meet">
<metadata>
Created by potrace 1.14, written by Peter Selinger 2001-2017
</metadata>
<g transform="translate(0.000000,300.000000) scale(0.100000,-0.100000)"
fill="#000000" stroke="none">
<path d="M742 2987 c-30 -9 -33 -13 -26 -36 4 -14 8 -48 10 -76 1 -27 15 -95
32 -150 28 -96 42 -146 48 -173 1 -7 -9 -34 -23 -60 -36 -67 -34 -124 7 -249
20 -62 130 -414 130 -417 0 -1 -9 -2 -20 -3 -58 -5 -191 -38 -238 -60 -64 -30
-80 -60 -58 -107 19 -41 55 -162 62 -206 3 -19 9 -38 12 -42 4 -3 39 0 77 7
39 7 99 16 135 20 36 4 79 8 95 10 250 28 911 27 1059 -1 10 -2 44 -6 75 -9
31 -4 70 -9 86 -11 17 -3 44 -7 60 -10 73 -11 69 -13 82 51 6 33 26 99 43 148
36 102 33 114 -34 147 -69 33 -263 73 -398 82 -25 2 -33 14 -29 41 2 15 -17 6
-31 -14 -8 -12 -20 -20 -28 -17 -10 3 2 21 39 58 48 48 51 54 35 64 -22 12
-31 14 -107 20 -32 3 -65 10 -75 15 -15 8 -13 11 11 20 15 6 39 14 52 17 25 6
33 28 15 39 -17 11 -11 37 10 42 21 6 25 15 35 78 l6 40 -68 20 c-37 11 -85
18 -105 17 -33 -2 -38 1 -44 23 -5 22 -9 23 -28 13 -11 -6 -42 -34 -68 -62
-53 -58 -64 -45 -20 25 15 24 31 49 35 55 4 7 -2 10 -16 7 -27 -5 -49 17 -54
55 -7 57 -10 66 -27 76 -14 9 -21 6 -38 -14 -11 -14 -25 -37 -30 -52 -11 -31
-25 -36 -34 -13 -10 24 -24 18 -38 -17 -11 -25 -11 -41 -1 -84 7 -29 8 -58 4
-66 -7 -10 -9 -10 -9 0 0 22 -2 27 -13 40 -9 12 -13 11 -22 -2 -10 -13 -15
-12 -40 14 -34 36 -41 37 -42 8 -1 -61 -3 -73 -12 -60 -6 10 -10 10 -21 -3
-10 -12 -11 -26 -3 -60 6 -24 6 -42 1 -39 -15 9 -48 -7 -48 -23 0 -9 7 -25 16
-34 16 -17 15 -19 -12 -29 l-29 -11 33 -27 c41 -35 42 -66 2 -87 -47 -24 -38
-50 18 -48 6 1 12 -3 12 -7 0 -4 -42 -10 -92 -14 -51 -4 -107 -9 -125 -11 -31
-4 -33 -2 -44 38 -6 23 -20 67 -30 97 -38 116 -60 201 -54 209 3 5 46 19 97
31 50 12 114 30 141 40 54 21 67 19 67 -10 0 -10 4 -21 9 -25 17 -10 17 29 0
85 -10 30 -25 82 -35 114 -21 70 -63 122 -114 142 -45 18 -65 51 -96 162 -33
117 -65 202 -75 202 -4 0 -14 18 -20 40 -13 43 -21 45 -77 27z m98 -101 c0
-14 -75 -40 -90 -31 -19 12 -9 24 33 38 45 15 57 14 57 -7z m107 -308 c9 -10
38 -31 65 -45 36 -19 53 -38 70 -72 24 -48 37 -102 18 -69 -9 15 -14 14 -53
-7 -76 -43 -250 -78 -259 -53 -3 7 -6 36 -7 63 -2 38 3 57 18 76 31 40 34 86
11 164 -12 39 -27 90 -33 115 l-12 45 45 15 45 15 38 -114 c20 -63 45 -123 54
-133z m523 -312 c0 -3 -4 -8 -10 -11 -5 -3 -10 -1 -10 4 0 6 5 11 10 11 6 0
10 -2 10 -4z m-653 -28 c-3 -8 -6 -5 -6 6 -1 11 2 17 5 13 3 -3 4 -12 1 -19z
m633 -65 c-11 -17 -11 -17 -6 0 3 10 7 28 7 40 2 22 2 22 6 0 2 -12 -1 -30 -7
-40z m147 -25 c-3 -7 -5 -2 -5 12 0 14 2 19 5 13 2 -7 2 -19 0 -25z m103 7 c0
-2 -10 -9 -22 -15 -22 -11 -22 -10 -4 4 21 17 26 19 26 11z m-256 -86 l-6 -82
68 49 c38 26 70 49 72 50 2 1 4 11 5 23 1 11 5 21 10 21 5 0 7 -7 3 -15 -7
-19 3 -19 34 1 l25 16 -22 -20 c-28 -25 -29 -32 -3 -27 11 2 20 0 20 -6 0 -5
-15 -7 -33 -4 -29 5 -43 -1 -95 -39 -70 -52 -95 -85 -59 -79 12 2 42 -1 67 -6
42 -9 41 -10 -17 -5 -35 3 -63 3 -63 0 0 -3 5 -17 12 -31 9 -19 16 -24 32 -19
18 6 19 5 7 -10 -14 -16 -47 -23 -37 -7 7 11 -60 111 -83 126 -9 6 -25 13 -36
17 -19 6 -18 6 3 7 22 1 22 2 6 26 -28 42 -9 28 25 -20 18 -25 37 -45 42 -45
13 0 9 90 -4 108 -6 8 -6 12 1 12 6 0 13 -6 15 -12 3 -7 6 2 6 20 1 17 3 32 6
32 4 0 3 -37 -1 -81z m-114 41 c6 -11 8 -20 6 -20 -3 0 -10 9 -16 20 -6 11 -8
20 -6 20 3 0 10 -9 16 -20z m363 -37 c-7 -2 -19 -2 -25 0 -7 3 -2 5 12 5 14 0
19 -2 13 -5z m-428 -13 c3 -5 1 -10 -4 -10 -6 0 -11 5 -11 10 0 6 2 10 4 10 3
0 8 -4 11 -10z m45 -20 c8 -5 11 -10 5 -10 -5 0 -17 5 -25 10 -8 5 -10 10 -5
10 6 0 17 -5 25 -10z m71 -93 c-1 -16 -97 -80 -130 -88 -50 -11 -49 -5 1 20
24 11 58 35 77 51 32 28 53 35 52 17z m230 -15 c-7 -2 -18 1 -23 6 -8 8 -4 9
13 5 13 -4 18 -8 10 -11z m46 2 c-3 -3 -12 -4 -19 -1 -8 3 -5 6 6 6 11 1 17
-2 13 -5z m-257 -45 c-6 -10 -14 -20 -18 -20 -69 -11 -71 -9 -20 26 37 26 53
23 38 -6z m165 -9 c13 -5 14 -9 5 -9 -8 0 -24 4 -35 9 -13 5 -14 9 -5 9 8 0
24 -4 35 -9z"/>
<path d="M984 2425 c-60 -13 -157 -49 -182 -68 -49 -38 135 -8 236 38 81 37
53 53 -54 30z"/>
<path d="M1856 2757 c-65 -73 -92 -172 -73 -271 12 -68 38 -115 96 -176 72
-75 82 -129 46 -252 -12 -43 -12 -46 5 -51 15 -4 21 6 36 62 28 107 74 155
179 186 137 39 237 173 230 305 -5 101 -7 103 -98 128 -198 53 -382 102 -387
102 -3 0 -18 -15 -34 -33z m379 -96 c43 -12 84 -26 90 -32 13 -13 11 -136 -3
-170 l-10 -26 -89 23 c-48 13 -101 26 -118 28 -143 20 -193 32 -247 55 -44 20
-46 23 -41 54 6 43 36 107 62 134 l21 22 127 -34 c71 -18 164 -43 208 -54z
m-335 -161 c30 -10 78 -21 105 -24 125 -16 285 -56 285 -72 0 -23 -89 -91
-137 -105 -155 -44 -301 45 -337 205 -6 25 -5 28 11 21 10 -4 43 -15 73 -25z"/>
<path d="M485 1628 c-33 -11 -82 -23 -109 -26 -78 -11 -75 -18 53 -129 32 -28
33 -32 36 -111 1 -46 5 -85 7 -87 3 -3 45 4 94 15 49 10 100 21 114 24 46 8
201 49 198 51 -2 2 -49 5 -105 8 -56 3 -110 10 -119 15 -14 8 -18 24 -19 74
-1 63 -28 140 -62 173 -17 18 -13 18 -88 -7z"/>
<path d="M2423 1617 c-33 -47 -50 -106 -48 -159 3 -74 -5 -79 -130 -84 -60 -3
-111 -6 -112 -8 -5 -5 108 -33 257 -64 52 -11 107 -23 123 -27 19 -5 27 -3 28
6 1 8 2 48 4 89 3 70 4 76 36 103 90 78 110 99 106 110 -2 7 -27 15 -56 20
-29 4 -80 16 -114 27 -33 11 -63 20 -66 20 -3 0 -16 -15 -28 -33z"/>
<path d="M1062 978 c25 -29 57 -55 72 -59 24 -7 33 -1 77 44 27 29 49 55 49
60 0 4 -15 7 -34 7 -29 0 -38 -6 -57 -36 l-22 -37 -30 37 c-23 29 -36 36 -64
36 l-36 0 45 -52z"/>
<path d="M933 903 c-28 -10 -7 -87 25 -95 4 0 63 -2 132 -3 84 -2 124 -6 123
-13 -2 -6 -36 -63 -78 -126 -41 -64 -108 -167 -149 -229 -40 -63 -79 -124 -85
-135 l-12 -22 246 0 c135 0 245 4 246 8 0 4 2 19 4 34 2 15 -2 31 -8 35 -7 5
-83 8 -169 8 -87 1 -159 3 -160 5 -1 3 69 112 155 243 87 130 160 243 162 250
4 9 -36 12 -175 11 -137 -1 -182 2 -188 12 -8 14 -49 24 -69 17z"/>
<path d="M1487 870 c-9 -4 -12 -74 -12 -295 l0 -290 39 -3 c21 -2 42 1 45 7 5
7 7 560 2 581 -1 7 -57 7 -74 0z"/>
<path d="M1824 870 c-81 -18 -136 -80 -137 -154 -1 -60 28 -96 107 -134 36
-18 69 -32 73 -32 15 0 88 -43 100 -59 38 -50 -10 -114 -94 -125 -43 -6 -113
6 -164 28 -11 5 -20 -3 -32 -29 -10 -20 -15 -40 -12 -45 13 -20 113 -44 186
-44 123 1 198 48 214 137 19 98 -25 155 -162 212 -51 20 -99 45 -108 55 -70
77 48 141 183 98 18 -5 35 -8 36 -6 14 15 34 68 28 71 -35 22 -170 39 -218 27z"/>
<path d="M1460 71 c4 -8 4 -24 0 -36 -7 -19 -4 -21 30 -20 36 0 38 1 37 35 -1
34 -2 35 -38 35 -31 1 -36 -2 -29 -14z"/>
<path d="M1185 63 c-92 -19 -96 -22 -20 -15 39 4 96 7 128 7 56 0 83 14 30 16
-16 1 -39 2 -53 3 -14 1 -52 -4 -85 -11z"/>
<path d="M1656 66 c-37 -11 -36 -11 35 -12 41 0 103 -4 139 -9 36 -4 63 -5 60
-2 -3 2 -23 7 -45 10 -22 3 -47 8 -55 11 -33 12 -97 13 -134 2z"/>
</g>
</svg>
